<svg xmlns="http://www.w3.org/2000/svg" viewBox="0 0 112 105">
  <g fill="#5B3FA6">
    
    <rect x="49.0" y="0.0" width="14.0" height="3.5" rx="0.5"/>
    <rect x="45.5" y="3.5" width="21.0" height="3.5" rx="0.5"/>
    <rect x="42.0" y="7.0" width="24.5" height="3.5" rx="0.5"/>
    <rect x="42.0" y="10.5" width="10.5" height="3.5" rx="0.5"/>
    <rect x="59.5" y="10.5" width="7.0" height="3.5" rx="0.5"/>
    <rect x="3.5" y="14.0" width="14.0" height="3.5" rx="0.5"/>
    <rect x="42.0" y="14.0" width="24.5" height="3.5" rx="0.5"/>
    <rect x="94.5" y="14.0" width="14.0" height="3.5" rx="0.5"/>
    <rect x="3.5" y="17.5" width="24.5" height="3.5" rx="0.5"/>
    <rect x="45.5" y="17.5" width="21.0" height="3.5" rx="0.5"/>
    <rect x="84.0" y="17.5" width="24.5" height="3.5" rx="0.5"/>
    <rect x="3.5" y="21.0" width="31.5" height="3.5" rx="0.5"/>
    <rect x="49.0" y="21.0" width="14.0" height="3.5" rx="0.5"/>
    <rect x="80.5" y="21.0" width="28.0" height="3.5" rx="0.5"/>
    <rect x="3.5" y="24.5" width="35.0" height="3.5" rx="0.5"/>
    <rect x="52.5" y="24.5" width="7.0" height="3.5" rx="0.5"/>
    <rect x="73.5" y="24.5" width="35.0" height="3.5" rx="0.5"/>
    <rect x="3.5" y="28.0" width="10.5" height="3.5" rx="0.5"/>
    <rect x="24.5" y="28.0" width="17.5" height="3.5" rx="0.5"/>
    <rect x="52.5" y="28.0" width="7.0" height="3.5" rx="0.5"/>
    <rect x="73.5" y="28.0" width="14.0" height="3.5" rx="0.5"/>
    <rect x="98.0" y="28.0" width="10.5" height="3.5" rx="0.5"/>
    <rect x="3.5" y="31.5" width="10.5" height="3.5" rx="0.5"/>
    <rect x="28.0" y="31.5" width="14.0" height="3.5" rx="0.5"/>
    <rect x="52.5" y="31.5" width="7.0" height="3.5" rx="0.5"/>
    <rect x="70.0" y="31.5" width="14.0" height="3.5" rx="0.5"/>
    <rect x="98.0" y="31.5" width="10.5" height="3.5" rx="0.5"/>
    <rect x="3.5" y="35.0" width="10.5" height="3.5" rx="0.5"/>
    <rect x="31.5" y="35.0" width="14.0" height="3.5" rx="0.5"/>
    <rect x="52.5" y="35.0" width="7.0" height="3.5" rx="0.5"/>
    <rect x="70.0" y="35.0" width="10.5" height="3.5" rx="0.5"/>
    <rect x="98.0" y="35.0" width="10.5" height="3.5" rx="0.5"/>
    <rect x="3.5" y="38.5" width="10.5" height="3.5" rx="0.5"/>
    <rect x="35.0" y="38.5" width="10.5" height="3.5" rx="0.5"/>
    <rect x="52.5" y="38.5" width="7.0" height="3.5" rx="0.5"/>
    <rect x="70.0" y="38.5" width="7.0" height="3.5" rx="0.5"/>
    <rect x="94.5" y="38.5" width="10.5" height="3.5" rx="0.5"/>
    <rect x="3.5" y="42.0" width="14.0" height="3.5" rx="0.5"/>
    <rect x="38.5" y="42.0" width="10.5" height="3.5" rx="0.5"/>
    <rect x="52.5" y="42.0" width="7.0" height="3.5" rx="0.5"/>
    <rect x="70.0" y="42.0" width="7.0" height="3.5" rx="0.5"/>
    <rect x="94.5" y="42.0" width="10.5" height="3.5" rx="0.5"/>
    <rect x="7.0" y="45.5" width="10.5" height="3.5" rx="0.5"/>
    <rect x="38.5" y="45.5" width="10.5" height="3.5" rx="0.5"/>
    <rect x="52.5" y="45.5" width="7.0" height="3.5" rx="0.5"/>
    <rect x="70.0" y="45.5" width="10.5" height="3.5" rx="0.5"/>
    <rect x="94.5" y="45.5" width="10.5" height="3.5" rx="0.5"/>
    <rect x="7.0" y="49.0" width="14.0" height="3.5" rx="0.5"/>
    <rect x="38.5" y="49.0" width="10.5" height="3.5" rx="0.5"/>
    <rect x="52.5" y="49.0" width="7.0" height="3.5" rx="0.5"/>
    <rect x="66.5" y="49.0" width="14.0" height="3.5" rx="0.5"/>
    <rect x="91.0" y="49.0" width="14.0" height="3.5" rx="0.5"/>
    <rect x="10.5" y="52.5" width="10.5" height="3.5" rx="0.5"/>
    <rect x="38.5" y="52.5" width="10.5" height="3.5" rx="0.5"/>
    <rect x="52.5" y="52.5" width="7.0" height="3.5" rx="0.5"/>
    <rect x="63.0" y="52.5" width="14.0" height="3.5" rx="0.5"/>
    <rect x="91.0" y="52.5" width="10.5" height="3.5" rx="0.5"/>
    <rect x="10.5" y="56.0" width="14.0" height="3.5" rx="0.5"/>
    <rect x="38.5" y="56.0" width="10.5" height="3.5" rx="0.5"/>
    <rect x="52.5" y="56.0" width="21.0" height="3.5" rx="0.5"/>
    <rect x="87.5" y="56.0" width="14.0" height="3.5" rx="0.5"/>
    <rect x="14.0" y="59.5" width="10.5" height="3.5" rx="0.5"/>
    <rect x="38.5" y="59.5" width="10.5" height="3.5" rx="0.5"/>
    <rect x="52.5" y="59.5" width="17.5" height="3.5" rx="0.5"/>
    <rect x="87.5" y="59.5" width="10.5" height="3.5" rx="0.5"/>
    <rect x="14.0" y="63.0" width="14.0" height="3.5" rx="0.5"/>
    <rect x="38.5" y="63.0" width="10.5" height="3.5" rx="0.5"/>
    <rect x="52.5" y="63.0" width="14.0" height="3.5" rx="0.5"/>
    <rect x="84.0" y="63.0" width="10.5" height="3.5" rx="0.5"/>
    <rect x="17.5" y="66.5" width="14.0" height="3.5" rx="0.5"/>
    <rect x="38.5" y="66.5" width="10.5" height="3.5" rx="0.5"/>
    <rect x="52.5" y="66.5" width="10.5" height="3.5" rx="0.5"/>
    <rect x="80.5" y="66.5" width="14.0" height="3.5" rx="0.5"/>
    <rect x="21.0" y="70.0" width="14.0" height="3.5" rx="0.5"/>
    <rect x="42.0" y="70.0" width="7.0" height="3.5" rx="0.5"/>
    <rect x="52.5" y="70.0" width="7.0" height="3.5" rx="0.5"/>
    <rect x="77.0" y="70.0" width="14.0" height="3.5" rx="0.5"/>
    <rect x="24.5" y="73.5" width="14.0" height="3.5" rx="0.5"/>
    <rect x="52.5" y="73.5" width="7.0" height="3.5" rx="0.5"/>
    <rect x="73.5" y="73.5" width="14.0" height="3.5" rx="0.5"/>
    <rect x="28.0" y="77.0" width="14.0" height="3.5" rx="0.5"/>
    <rect x="52.5" y="77.0" width="7.0" height="3.5" rx="0.5"/>
    <rect x="70.0" y="77.0" width="14.0" height="3.5" rx="0.5"/>
    <rect x="31.5" y="80.5" width="14.0" height="3.5" rx="0.5"/>
    <rect x="52.5" y="80.5" width="7.0" height="3.5" rx="0.5"/>
    <rect x="66.5" y="80.5" width="14.0" height="3.5" rx="0.5"/>
    <rect x="35.0" y="84.0" width="14.0" height="3.5" rx="0.5"/>
    <rect x="52.5" y="84.0" width="24.5" height="3.5" rx="0.5"/>
    <rect x="38.5" y="87.5" width="35.0" height="3.5" rx="0.5"/>
    <rect x="42.0" y="91.0" width="28.0" height="3.5" rx="0.5"/>
    <rect x="45.5" y="94.5" width="17.5" height="3.5" rx="0.5"/>
    <rect x="49.0" y="98.0" width="10.5" height="3.5" rx="0.5"/>
  </g>
</svg>